<svg width="470" height="470" viewBox="0 0 470 470" fill="none" xmlns="http://www.w3.org/2000/svg">
<path d="M218.315 312.315C217.304 313.432 216.363 314.609 215.495 315.84C214.606 317.15 213.894 318.572 213.38 320.07C212.703 321.402 212.227 322.828 211.97 324.3C211.855 325.864 211.855 327.435 211.97 329C211.891 332.083 212.535 335.141 213.85 337.93C214.906 340.846 216.589 343.495 218.782 345.688C220.975 347.881 223.624 349.564 226.54 350.62C229.353 351.863 232.395 352.505 235.47 352.505C238.546 352.505 241.587 351.863 244.4 350.62C247.316 349.564 249.965 347.881 252.158 345.688C254.351 343.495 256.035 340.846 257.09 337.93C258.134 335.073 258.612 332.04 258.5 329C258.518 325.907 257.925 322.841 256.756 319.978C255.586 317.115 253.863 314.511 251.685 312.315C249.5 310.112 246.901 308.364 244.038 307.171C241.174 305.978 238.102 305.364 235 305.364C231.898 305.364 228.826 305.978 225.963 307.171C223.099 308.364 220.5 310.112 218.315 312.315ZM235 0C188.521 0 143.087 13.7825 104.441 39.6046C65.7955 65.4268 35.675 102.129 17.8884 145.069C0.101822 188.01 -4.55196 235.261 4.51556 280.846C13.5831 326.432 35.9647 368.305 68.83 401.17C101.695 434.035 143.568 456.417 189.154 465.484C234.739 474.552 281.99 469.898 324.931 452.112C367.871 434.325 404.573 404.204 430.395 365.559C456.217 326.913 470 281.479 470 235C470 204.139 463.922 173.581 452.112 145.069C440.302 116.558 422.992 90.6517 401.17 68.8299C379.348 47.0081 353.442 29.6982 324.931 17.8883C296.419 6.07845 265.861 0 235 0ZM235 423C197.817 423 161.469 411.974 130.553 391.316C99.6364 370.658 75.54 341.297 61.3107 306.944C47.0815 272.592 43.3585 234.791 50.6125 198.323C57.8665 161.855 75.7717 128.356 102.064 102.064C128.356 75.7716 161.855 57.8664 198.323 50.6124C234.792 43.3583 272.592 47.0814 306.945 61.3106C341.297 75.5399 370.659 99.6363 391.316 130.553C411.974 161.469 423 197.817 423 235C423 284.861 403.193 332.679 367.936 367.936C332.679 403.193 284.861 423 235 423ZM235 117.5C222.617 117.492 210.45 120.746 199.724 126.934C188.998 133.122 180.092 142.026 173.9 152.75C172.2 155.425 171.058 158.416 170.544 161.543C170.029 164.671 170.153 167.87 170.907 170.948C171.661 174.026 173.03 176.921 174.931 179.456C176.833 181.992 179.228 184.117 181.972 185.703C184.716 187.289 187.752 188.303 190.898 188.686C194.045 189.068 197.236 188.81 200.28 187.927C203.324 187.044 206.157 185.554 208.611 183.547C211.064 181.541 213.086 179.058 214.555 176.25C216.626 172.664 219.607 169.688 223.197 167.625C226.787 165.562 230.859 164.484 235 164.5C241.233 164.5 247.21 166.976 251.617 171.383C256.024 175.79 258.5 181.767 258.5 188C258.5 194.233 256.024 200.21 251.617 204.617C247.21 209.024 241.233 211.5 235 211.5C228.767 211.5 222.79 213.976 218.383 218.383C213.976 222.79 211.5 228.767 211.5 235V258.5C211.5 264.733 213.976 270.71 218.383 275.117C222.79 279.524 228.767 282 235 282C241.233 282 247.21 279.524 251.617 275.117C256.024 270.71 258.5 264.733 258.5 258.5V254.27C274.042 248.63 287.108 237.708 295.413 223.411C303.718 209.115 306.735 192.354 303.935 176.059C301.135 159.764 292.697 144.972 280.096 134.268C267.496 123.563 251.533 117.628 235 117.5Z" fill="#FAFAFA"/>
</svg>
