<svg width="384" height="448" viewBox="0 0 384 448" fill="none" xmlns="http://www.w3.org/2000/svg">
<path d="M22.4 448H361.6C373.9 448 384 438.1 384 425.9V214C384 201.8 374 192 361.6 192H340V161.1C340 119.6 323.8 73.5 297.4 45.7C271.1 17.9 233.4 0 192.1 0H192H191.9C150.6 0 112.9 17.9 86.6 45.6C60.2 73.4 44 119.5 44 161V192H22.4C10 192 0 201.9 0 214V425.9C0 438.1 10 448 22.4 448ZM97 161.1C97 133.8 106.9 100 125.1 80.8V80.5C142.7 61.9 167 51 191.9 51H192.1C217 51 241.3 61.9 258.9 80.5V80.7L258.8 80.8C277.1 100 286.9 133.8 286.9 161.1V192H97V161.1Z" fill="white"/>
</svg>
