<svg width="470" height="470" viewBox="0 0 470 470" fill="none" xmlns="http://www.w3.org/2000/svg">
<path d="M248.923 258.501L194.861 312.316C192.658 314.5 190.909 317.1 189.716 319.963C188.522 322.827 187.908 325.898 187.908 329.001C187.908 332.103 188.522 335.175 189.716 338.038C190.909 340.902 192.658 343.501 194.861 345.686C197.046 347.888 199.646 349.636 202.51 350.83C205.374 352.023 208.447 352.637 211.55 352.637C214.653 352.637 217.725 352.023 220.589 350.83C223.454 349.636 226.053 347.888 228.239 345.686L322.261 251.686C324.401 249.451 326.078 246.816 327.197 243.931C329.548 238.21 329.548 231.793 327.197 226.071C326.078 223.187 324.401 220.551 322.261 218.316L228.239 124.317C226.047 122.126 223.445 120.388 220.582 119.202C217.718 118.016 214.649 117.406 211.55 117.406C208.45 117.406 205.381 118.016 202.518 119.202C199.654 120.388 197.052 122.126 194.861 124.317C192.669 126.508 190.931 129.109 189.745 131.972C188.558 134.835 187.948 137.903 187.948 141.002C187.948 144.1 188.558 147.169 189.745 150.031C190.931 152.894 192.669 155.495 194.861 157.687L248.923 211.501H23.5055C17.2715 211.501 11.2927 213.977 6.88461 218.384C2.47647 222.791 0 228.769 0 235.001C0 241.234 2.47647 247.211 6.88461 251.618C11.2927 256.025 17.2715 258.501 23.5055 258.501H248.923ZM235.055 0.00234279C191.126 -0.193735 148.02 11.9218 110.628 34.9747C73.2359 58.0276 43.054 91.0952 23.5055 130.427C20.7002 136.036 20.2386 142.53 22.2223 148.479C24.2059 154.429 28.4724 159.347 34.083 162.152C39.6936 164.956 46.1889 165.418 52.1399 163.434C58.0909 161.451 63.0101 157.186 65.8154 151.577C80.6754 121.575 103.279 96.0844 131.291 77.7397C159.303 59.3949 191.707 48.8614 225.154 47.2275C258.6 45.5937 291.877 52.9188 321.544 68.446C351.211 83.9732 376.193 107.139 393.908 135.55C411.623 163.96 421.428 196.585 422.31 230.052C423.191 263.519 415.118 296.614 398.924 325.918C382.73 355.221 359.003 379.67 330.195 396.737C301.386 413.805 268.542 422.871 235.055 423C200.006 423.152 165.623 413.421 135.855 394.924C106.086 376.427 82.1366 349.913 66.7557 318.426C63.9503 312.816 59.0311 308.551 53.0801 306.568C47.1291 304.585 40.6339 305.046 35.0232 307.851C29.4126 310.655 25.1461 315.574 23.1625 321.523C21.1788 327.473 21.6404 333.966 24.4457 339.576C43.0816 377.07 71.3985 408.906 106.468 431.79C141.537 454.675 182.084 467.777 223.916 469.741C265.749 471.706 307.346 462.461 344.406 442.964C381.466 423.466 412.644 394.424 434.713 358.841C456.782 323.259 468.941 282.427 469.934 240.571C470.926 198.714 460.716 157.353 440.358 120.764C420 84.1759 390.235 53.6894 354.14 32.4582C318.046 11.2269 276.933 0.0219993 235.055 0.00234279Z" fill="#FAFAFA"/>
</svg>
