<svg width="470" height="470" viewBox="0 0 470 470" fill="none" xmlns="http://www.w3.org/2000/svg">
<path d="M203.506 94.0497H375.91C382.14 94.0497 388.114 96.5243 392.519 100.929C396.924 105.334 399.399 111.309 399.399 117.538V258.468C399.427 262.614 398.287 266.684 396.11 270.213C394.46 272.819 393.339 275.725 392.811 278.764C392.284 281.804 392.36 284.918 393.037 287.928C393.713 290.938 394.975 293.785 396.752 296.307C398.529 298.829 400.785 300.977 403.392 302.627C407.07 305.101 411.408 306.41 415.841 306.385C419.771 306.378 423.636 305.386 427.083 303.498C430.53 301.61 433.449 298.888 435.571 295.58C442.632 284.49 446.38 271.615 446.375 258.468V117.538C446.375 98.8495 438.951 80.9264 425.737 67.7116C412.522 54.4969 394.599 47.0729 375.91 47.0729H203.506C197.276 47.0729 191.302 49.5475 186.897 53.9525C182.492 58.3574 180.017 64.3318 180.017 70.5613C180.017 76.7908 182.492 82.7651 186.897 87.1701C191.302 91.575 197.276 94.0497 203.506 94.0497ZM463.052 429.699L90.7613 57.6427L40.2612 6.90774C38.0712 4.71771 35.4713 2.98049 32.6099 1.79526C29.7485 0.61003 26.6817 0 23.5845 0C20.4873 0 17.4205 0.61003 14.5591 1.79526C11.6977 2.98049 9.09776 4.71771 6.90774 6.90774C2.48479 11.3307 0 17.3295 0 23.5845C0 29.8395 2.48479 35.8383 6.90774 40.2612L39.7915 72.9101C29.3892 85.4633 23.6615 101.235 23.5845 117.538V258.468C23.5845 277.157 31.0085 295.08 44.2233 308.295C57.438 321.51 75.3611 328.934 94.0497 328.934H211.492V375.91H117.538C111.309 375.91 105.334 378.385 100.929 382.79C96.5243 387.195 94.0497 393.169 94.0497 399.399C94.0497 405.628 96.5243 411.603 100.929 416.007C105.334 420.412 111.309 422.887 117.538 422.887H352.422C357.209 422.837 361.866 421.325 365.77 418.555C369.674 415.784 372.639 411.887 374.266 407.385L429.699 463.052C431.882 465.254 434.48 467.001 437.342 468.194C440.205 469.386 443.275 470 446.375 470C449.476 470 452.546 469.386 455.409 468.194C458.271 467.001 460.869 465.254 463.052 463.052C465.254 460.869 467.001 458.271 468.194 455.409C469.386 452.546 470 449.476 470 446.375C470 443.275 469.386 440.205 468.194 437.342C467.001 434.48 465.254 431.882 463.052 429.699ZM94.0497 281.957C87.8201 281.957 81.8458 279.482 77.4409 275.077C73.0359 270.672 70.5613 264.698 70.5613 258.468V117.538C70.6186 113.762 71.5855 110.056 73.3799 106.733L161.109 194.345L248.838 281.957H94.0497ZM258.468 375.91V328.934H295.815L342.792 375.91H258.468Z" fill="#FAFAFA"/>
</svg>
